<?xml version="1.0" encoding="UTF-8" standalone="no"?>
<!-- Created with Inkscape (http://www.inkscape.org/) -->

<svg
   width="128"
   height="128"
   viewBox="0 0 33.866666 33.866666"
   version="1.1"
   id="svg1"
   xml:space="preserve"
   inkscape:export-filename="vaso.png"
   inkscape:export-xdpi="96"
   inkscape:export-ydpi="96"
   inkscape:version="1.4.2 (ebf0e94, 2025-05-08)"
   sodipodi:docname="vaso-normal.svg"
   xmlns:inkscape="http://www.inkscape.org/namespaces/inkscape"
   xmlns:sodipodi="http://sodipodi.sourceforge.net/DTD/sodipodi-0.dtd"
   xmlns="http://www.w3.org/2000/svg"
   xmlns:svg="http://www.w3.org/2000/svg"><sodipodi:namedview
     id="namedview1"
     pagecolor="#7d7d7d"
     bordercolor="#eeeeee"
     borderopacity="1"
     inkscape:showpageshadow="0"
     inkscape:pageopacity="0"
     inkscape:pagecheckerboard="0"
     inkscape:deskcolor="#505050"
     inkscape:document-units="mm"
     showgrid="true"
     inkscape:zoom="3.1194043"
     inkscape:cx="99.698523"
     inkscape:cy="54.016724"
     inkscape:window-width="1600"
     inkscape:window-height="828"
     inkscape:window-x="0"
     inkscape:window-y="0"
     inkscape:window-maximized="1"
     inkscape:current-layer="layer1"><inkscape:grid
       id="grid1"
       units="mm"
       originx="0"
       originy="0"
       spacingx="0.99999998"
       spacingy="0.99999998"
       empcolor="#0099e5"
       empopacity="0.30196078"
       color="#0099e5"
       opacity="0.14901961"
       empspacing="5"
       enabled="true"
       visible="true" /></sodipodi:namedview><defs
     id="defs1" /><g
     inkscape:label="Layer 1"
     inkscape:groupmode="layer"
     id="layer1"
     transform="matrix(1.3588231,0,0,1.3588231,-6.3707914,-6.2069712)"><g
       id="g1"
       transform="matrix(1.3431785,0,0,1.3431785,-2.6921461,-2.0585034)"><rect
         style="display:none;fill:#0003c8;fill-opacity:1;stroke-width:1"
         id="rect1"
         width="23.283333"
         height="23.283333"
         x="3.1750002"
         y="3.1750002" /><g
         inkscape:label="Layer 1"
         id="layer1-5"><ellipse
           style="display:inline;fill:#f2df8e;fill-opacity:1;stroke:#f9f0c8;stroke-width:1;stroke-opacity:1"
           id="path1"
           cx="14.816667"
           cy="9.1545229"
           rx="5.8208332"
           ry="2.9104166" /><ellipse
           style="display:inline;fill:#f2df8e;fill-opacity:1;stroke:#f9f0c8;stroke-width:1;stroke-opacity:1"
           id="path1-3"
           cx="14.790146"
           cy="20.399252"
           rx="3.8099999"
           ry="1.8520833" /><path
           style="display:inline;fill:#f2df8e;fill-opacity:1;stroke:#f9f0c8;stroke-width:1;stroke-opacity:1"
           d="m 8.97356,8.9232681 2,11.4999969"
           id="path2"
           sodipodi:nodetypes="cc" /><path
           style="display:inline;fill:#f2df8e;fill-opacity:1;stroke:#f9f0c8;stroke-width:1;stroke-opacity:1"
           d="M 20.616334,8.9232681 18.616566,20.423215"
           id="path2-1"
           sodipodi:nodetypes="cc" /><path
           style="fill:#f9f0c8;fill-opacity:1;stroke:#f9f0c8;stroke-width:0.16;stroke-dasharray:none;stroke-opacity:1"
           d="m 13.719399,21.653325 c -0.875541,-0.143641 -1.645305,-0.463622 -1.982482,-0.824091 -0.318878,-0.340907 -0.319965,-0.520335 -0.0052,-0.856857 0.351206,-0.375468 1.207384,-0.717716 2.109265,-0.843156 0.742158,-0.103225 1.944828,-0.03721 2.6302,0.144377 0.918481,0.243345 1.595156,0.720337 1.595156,1.124434 0,0.454959 -0.787338,0.954435 -1.887213,1.197221 -0.492269,0.108663 -1.942653,0.142906 -2.459738,0.05807 z"
           id="path8" /></g></g><path
       style="fill:#f9f0c8;fill-opacity:1;stroke:#f9f0c8;stroke-width:1.21162;stroke-linecap:round;stroke-opacity:1"
       d="m 39.603934,96.115893 c -0.283575,-1.232617 -8.828827,-50.622576 -8.828827,-51.028968 0,-0.206896 1.839293,0.524742 4.087318,1.625865 6.705128,3.284288 14.232128,5.127645 23.962909,5.868497 12.802509,0.974717 27.730311,-1.726831 36.625583,-6.628288 1.648968,-0.908613 2.003587,-1.008925 2.003587,-0.566766 0,0.950574 -8.731115,50.938084 -8.937398,51.168519 -0.109428,0.122242 -0.97995,-0.270846 -1.934495,-0.873529 -3.657438,-2.309238 -8.561166,-3.900074 -14.895334,-4.832252 -4.802019,-0.706696 -13.750602,-0.466496 -18.188505,0.488215 -5.235825,1.126369 -9.536739,2.768333 -12.693639,4.846069 l -1.029778,0.677755 z"
       id="path3"
       transform="matrix(0.19471507,0,0,0.19471507,4.6884627,4.5679023)" /></g></svg>
